<?xml version="1.0" encoding="utf-8"?>
<!-- Generator: Adobe Illustrator 16.0.0, SVG Export Plug-In . SVG Version: 6.00 Build 0)  -->
<!DOCTYPE svg PUBLIC "-//W3C//DTD SVG 1.1//EN" "http://www.w3.org/Graphics/SVG/1.1/DTD/svg11.dtd">
<svg version="1.1" id="Layer_1" xmlns="http://www.w3.org/2000/svg" xmlns:xlink="http://www.w3.org/1999/xlink" x="0px" y="0px"
	 width="99.667px" height="46.167px" viewBox="0 0 99.667 46.167" enable-background="new 0 0 99.667 46.167" xml:space="preserve">
<g>
	<g>
		<defs>
			<path id="SVGID_1_" d="M15.705,40.196c0,0.576,0.129,1.015,0.389,1.312c0.259,0.299,0.667,0.51,1.224,0.635
				c0.557,0.125,1.354,0.206,2.391,0.244l-0.259,1.182c-2.17-0.115-5.253-0.173-9.248-0.173c-4.283,0-7.49,0.058-9.622,0.173
				l0.288-1.182c1.364-0.057,2.391-0.211,3.083-0.461c0.691-0.25,1.248-0.715,1.671-1.396c0.422-0.682,0.826-1.753,1.21-3.213
				l7.778-29.27c0.326-1.248,0.49-2.199,0.49-2.852c0-0.576-0.13-1.018-0.389-1.325c-0.26-0.307-0.663-0.523-1.21-0.648
				c-0.548-0.125-1.331-0.206-2.348-0.245l0.288-1.181c1.978,0.115,5.186,0.173,9.622,0.173c3.783,0,6.885-0.058,9.305-0.173
				L30.08,2.976c-1.44,0.058-2.511,0.211-3.212,0.461c-0.702,0.25-1.258,0.711-1.671,1.383c-0.414,0.672-0.812,1.748-1.196,3.227
				l-7.778,29.269C15.877,38.66,15.705,39.621,15.705,40.196z M28.236,26.224c0-0.979-0.115-1.758-0.346-2.333
				c-0.231-0.576-0.615-1.076-1.152-1.499c-1.633,0.422-2.833,0.633-3.601,0.633c-1.018,0-1.527-0.326-1.527-0.979l0.029-0.259
				c0.115-0.787,0.691-1.181,1.729-1.181c0.749,0,1.901,0.202,3.457,0.605c2.516-0.346,4.35-1.436,5.502-3.27
				c1.152-1.834,2.271-4.557,3.356-8.167c1.084-3.61,2.184-5.973,3.298-7.087c1.152-1.152,2.554-1.729,4.206-1.729
				c1.729,0,3.092,0.495,4.091,1.484c0.999,0.989,1.479,2.29,1.44,3.903c0,0.903-0.207,1.796-0.62,2.679
				c-0.413,0.884-1.027,1.609-1.844,2.175c-0.817,0.566-1.781,0.85-2.895,0.85c-1.114,0-2.041-0.346-2.78-1.037
				c-0.74-0.691-1.109-1.623-1.109-2.794c0-1.171,0.394-2.309,1.181-3.414c0.787-1.104,1.844-1.954,3.169-2.55
				c-0.23-0.115-0.547-0.173-0.951-0.173c-0.691,0-1.258,0.106-1.7,0.317s-0.874,0.538-1.296,0.979
				c-0.96,1.057-1.969,3.265-3.025,6.626c-1.057,3.361-2.123,6.006-3.198,7.937c-1.076,1.93-2.775,3.154-5.099,3.673
				c2.055,0.23,3.688,0.639,4.897,1.225s2.093,1.412,2.65,2.478c0.557,1.064,0.835,2.453,0.835,4.162
				c0,0.77-0.039,1.509-0.115,2.219l-0.663,6.193l-0.029,0.404c0,1.189,0.499,1.785,1.498,1.785c0.749,0,1.383-0.287,1.901-0.863
				s0.989-1.471,1.412-2.68l1.008-2.996h1.181l-1.556,4.551c-0.711,2.133-1.757,3.717-3.14,4.754
				c-1.383,1.037-2.967,1.557-4.753,1.557c-2.228,0-3.928-0.537-5.099-1.613c-1.172-1.076-1.757-2.555-1.757-4.438
				c0-0.27,0.038-0.729,0.115-1.383l1.124-8.268C28.179,27.722,28.236,26.897,28.236,26.224z M89.109,1.967
				c4.303,0,7.537-0.058,9.708-0.173l-0.288,1.181c-1.439,0.058-2.512,0.211-3.212,0.461s-1.259,0.711-1.671,1.383
				c-0.413,0.672-0.812,1.748-1.195,3.227l-7.779,29.269c-0.346,1.345-0.518,2.306-0.518,2.881c0,0.576,0.129,1.015,0.389,1.312
				c0.26,0.299,0.668,0.51,1.226,0.635s1.354,0.206,2.392,0.244l-0.23,1.182c-2.133-0.115-5.358-0.173-9.68-0.173
				c-3.996,0-7.088,0.058-9.276,0.173l0.229-1.182c1.422-0.057,2.487-0.211,3.198-0.461c0.71-0.25,1.271-0.711,1.685-1.383
				s0.812-1.748,1.197-3.228l3.772-14.174H63.671l-3.774,14.174c-0.347,1.345-0.519,2.306-0.519,2.881
				c0,0.576,0.129,1.015,0.39,1.312c0.259,0.299,0.667,0.51,1.226,0.635c0.557,0.125,1.354,0.206,2.391,0.244l-0.26,1.182
				c-2.17-0.115-5.254-0.173-9.248-0.173c-4.282,0-7.489,0.058-9.622,0.173l0.288-1.182c1.364-0.057,2.391-0.211,3.083-0.461
				c0.691-0.25,1.248-0.715,1.671-1.396c0.422-0.682,0.826-1.753,1.21-3.213l7.777-29.269c0.327-1.248,0.49-2.199,0.49-2.852
				c0-0.576-0.13-1.018-0.389-1.325c-0.26-0.307-0.663-0.523-1.211-0.648c-0.547-0.125-1.329-0.206-2.348-0.245l0.289-1.181
				c1.978,0.115,5.186,0.173,9.62,0.173c3.784,0,6.886-0.058,9.306-0.173l-0.287,1.181c-1.44,0.058-2.512,0.211-3.213,0.461
				s-1.258,0.711-1.67,1.383c-0.414,0.672-0.812,1.748-1.195,3.227L63.988,21.96h15.383l3.717-13.915
				c0.347-1.21,0.52-2.151,0.52-2.823c0-0.595-0.135-1.046-0.402-1.354c-0.271-0.307-0.683-0.523-1.238-0.648
				c-0.559-0.125-1.346-0.206-2.363-0.245l0.289-1.181C82.021,1.91,85.095,1.967,89.109,1.967z"/>
		</defs>
		<use xlink:href="#SVGID_1_"  overflow="visible" fill="#FFFFFF"/>
		<clipPath id="SVGID_2_">
			<use xlink:href="#SVGID_1_"  overflow="visible"/>
		</clipPath>
		<g transform="matrix(1 0 0 1 3.051758e-05 0)" display="none" clip-path="url(#SVGID_2_)">
			
				<image display="inline" overflow="visible" enable-background="new    " width="2564" height="1706" id="cloudy-header_1_" xlink:href="C271C1FDE09F81A6.jpeg"  transform="matrix(0.3071 0 0 0.3076 -409.1045 0.959)">
			</image>
		</g>
		<use xlink:href="#SVGID_1_"  overflow="visible" fill="none" stroke="#FFFFFF" stroke-miterlimit="10"/>
	</g>
</g>
</svg>
